<svg width="27" height="43" viewBox="0 0 27 43" fill="none" xmlns="http://www.w3.org/2000/svg">
<g filter="url(#filter0_f_4_14)">
<ellipse cx="13.1952" cy="38.561" rx="4.39024" ry="2.43902" fill="black" fill-opacity="0.12"/>
</g>
<mask id="path-2-outside-1_4_14" maskUnits="userSpaceOnUse" x="0" y="0" width="27" height="40" fill="black">
<rect fill="white" width="27" height="40"/>
<path fill-rule="evenodd" clip-rule="evenodd" d="M13.1949 38.073C12.6562 38.0729 12.2195 37.6361 12.2195 37.0974C12.2195 30.2959 8.4145 26.1287 5.56566 23.0087C4.74656 22.1116 4.0065 21.3011 3.45865 20.5394C1.91529 18.4966 1 15.9528 1 13.1951C1 6.45994 6.45994 1 13.1951 1C19.9303 1 25.3903 6.45994 25.3903 13.1951C25.3903 15.9562 24.4727 18.5029 22.9258 20.5471C22.3785 21.3065 21.6407 22.1146 20.8243 23.0087C17.9755 26.1287 14.1705 30.2959 14.1705 37.0974C14.1705 37.6361 13.7338 38.0729 13.1951 38.073"/>
</mask>
<path fill-rule="evenodd" clip-rule="evenodd" d="M13.1949 38.073C12.6562 38.0729 12.2195 37.6361 12.2195 37.0974C12.2195 30.2959 8.4145 26.1287 5.56566 23.0087C4.74656 22.1116 4.0065 21.3011 3.45865 20.5394C1.91529 18.4966 1 15.9528 1 13.1951C1 6.45994 6.45994 1 13.1951 1C19.9303 1 25.3903 6.45994 25.3903 13.1951C25.3903 15.9562 24.4727 18.5029 22.9258 20.5471C22.3785 21.3065 21.6407 22.1146 20.8243 23.0087C17.9755 26.1287 14.1705 30.2959 14.1705 37.0974C14.1705 37.6361 13.7338 38.0729 13.1951 38.073" fill="#474EFF"/>
<path d="M13.1951 37.573H13.1949V38.573H13.1951V37.573ZM5.56566 23.0087L6.30414 22.3344L6.30414 22.3344L5.56566 23.0087ZM3.45865 20.5394L4.27047 19.9555L4.26362 19.946L4.25654 19.9366L3.45865 20.5394ZM22.9258 20.5471L22.1284 19.9436L22.1214 19.9529L22.1146 19.9624L22.9258 20.5471ZM20.8243 23.0087L20.0858 22.3344L20.8243 23.0087ZM11.2195 37.0974C11.2195 38.1883 12.1038 39.0728 13.1947 39.073L13.1951 37.073C13.1966 37.073 13.2006 37.0735 13.2049 37.0753C13.2085 37.0769 13.2109 37.0787 13.2123 37.0801C13.2138 37.0816 13.2156 37.0839 13.2172 37.0876C13.219 37.0919 13.2195 37.0959 13.2195 37.0974H11.2195ZM4.82719 23.683C7.68014 26.8075 11.2195 30.718 11.2195 37.0974H13.2195C13.2195 29.8739 9.14885 25.4499 6.30414 22.3344L4.82719 23.683ZM2.64684 21.1234C3.23585 21.9422 4.0202 22.7992 4.82719 23.683L6.30414 22.3344C5.47292 21.4241 4.77715 20.66 4.27047 19.9555L2.64684 21.1234ZM0 13.1951C0 16.1777 0.990795 18.9318 2.66076 21.1422L4.25654 19.9366C2.83979 18.0614 2 15.7278 2 13.1951H0ZM13.1951 0C5.90766 0 0 5.90766 0 13.1951H2C2 7.01223 7.01223 2 13.1951 2V0ZM26.3903 13.1951C26.3903 5.90766 20.4826 0 13.1951 0V2C19.378 2 24.3903 7.01223 24.3903 13.1951H26.3903ZM23.7233 21.1505C25.397 18.9387 26.3903 16.1815 26.3903 13.1951H24.3903C24.3903 15.7309 23.5484 18.0672 22.1284 19.9436L23.7233 21.1505ZM21.5628 23.683C22.3672 22.802 23.1489 21.9479 23.7371 21.1317L22.1146 19.9624C21.6081 20.6651 20.9142 21.4272 20.0858 22.3344L21.5628 23.683ZM15.1705 37.0974C15.1705 30.718 18.7098 26.8075 21.5628 23.683L20.0858 22.3344C17.2411 25.4499 13.1705 29.8739 13.1705 37.0974H15.1705ZM13.1953 39.073C14.2862 39.0728 15.1705 38.1883 15.1705 37.0974H13.1705C13.1705 37.0959 13.171 37.0919 13.1728 37.0876C13.1744 37.0839 13.1762 37.0816 13.1776 37.0801C13.1791 37.0787 13.1814 37.0769 13.1851 37.0753C13.1894 37.0735 13.1934 37.073 13.1949 37.073L13.1953 39.073Z" fill="url(#paint0_linear_4_14)" mask="url(#path-2-outside-1_4_14)"/>
<circle cx="13.3077" cy="13.3077" r="7.69231" fill="black" fill-opacity="0.4"/>
<g filter="url(#filter1_b_4_14)">
<path d="M9.40909 19V7.36364H13.4773C14.2879 7.36364 14.9564 7.50379 15.483 7.78409C16.0095 8.06061 16.4015 8.43371 16.6591 8.90341C16.9167 9.36932 17.0455 9.88636 17.0455 10.4545C17.0455 10.9545 16.9564 11.3674 16.7784 11.6932C16.6042 12.0189 16.3731 12.2765 16.0852 12.4659C15.8011 12.6553 15.4924 12.7955 15.1591 12.8864V13C15.5152 13.0227 15.8731 13.1477 16.233 13.375C16.5928 13.6023 16.8939 13.928 17.1364 14.3523C17.3788 14.7765 17.5 15.2955 17.5 15.9091C17.5 16.4924 17.3674 17.017 17.1023 17.483C16.8371 17.9489 16.4186 18.3182 15.8466 18.5909C15.2746 18.8636 14.5303 19 13.6136 19H9.40909ZM10.8182 17.75H13.6136C14.5341 17.75 15.1875 17.572 15.5739 17.2159C15.964 16.8561 16.1591 16.4205 16.1591 15.9091C16.1591 15.5152 16.0587 15.1515 15.858 14.8182C15.6572 14.4811 15.3712 14.2121 15 14.0114C14.6288 13.8068 14.1894 13.7045 13.6818 13.7045H10.8182V17.75ZM10.8182 12.4773H13.4318C13.8561 12.4773 14.2386 12.3939 14.5795 12.2273C14.9242 12.0606 15.197 11.8258 15.3977 11.5227C15.6023 11.2197 15.7045 10.8636 15.7045 10.4545C15.7045 9.94318 15.5265 9.50947 15.1705 9.15341C14.8144 8.79356 14.25 8.61364 13.4773 8.61364H10.8182V12.4773Z" fill="white"/>
</g>
<defs>
<filter id="filter0_f_4_14" x="6.80499" y="34.122" width="12.7805" height="8.87805" filterUnits="userSpaceOnUse" color-interpolation-filters="sRGB">
<feFlood flood-opacity="0" result="BackgroundImageFix"/>
<feBlend mode="normal" in="SourceGraphic" in2="BackgroundImageFix" result="shape"/>
<feGaussianBlur stdDeviation="1" result="effect1_foregroundBlur_4_14"/>
</filter>
<filter id="filter1_b_4_14" x="5.40909" y="3.36365" width="16.0909" height="19.6364" filterUnits="userSpaceOnUse" color-interpolation-filters="sRGB">
<feFlood flood-opacity="0" result="BackgroundImageFix"/>
<feGaussianBlur in="BackgroundImage" stdDeviation="2"/>
<feComposite in2="SourceAlpha" operator="in" result="effect1_backgroundBlur_4_14"/>
<feBlend mode="normal" in="SourceGraphic" in2="effect1_backgroundBlur_4_14" result="shape"/>
</filter>
<linearGradient id="paint0_linear_4_14" x1="13.1951" y1="1" x2="13.1951" y2="38.073" gradientUnits="userSpaceOnUse">
<stop stop-color="white"/>
<stop offset="1" stop-color="white" stop-opacity="0.35"/>
</linearGradient>
</defs>
</svg>
