<svg width="27" height="41" viewBox="0 0 27 41" fill="none" xmlns="http://www.w3.org/2000/svg">
<g filter="url(#filter0_f_4_4)">
<ellipse cx="13.1951" cy="38.561" rx="4.39024" ry="2.43902" fill="black" fill-opacity="0.12"/>
</g>
<mask id="path-2-outside-1_4_4" maskUnits="userSpaceOnUse" x="0" y="0" width="27" height="40" fill="black">
<rect fill="white" width="27" height="40"/>
<path fill-rule="evenodd" clip-rule="evenodd" d="M13.1951 38.0732C12.6563 38.0731 12.2195 37.6364 12.2195 37.0976C12.2195 30.2961 8.41452 26.1289 5.56568 23.0089C4.74542 22.1105 4.00442 21.299 3.45635 20.5364C1.91438 18.4941 1 15.9514 1 13.1951C1 6.45994 6.45994 1 13.1951 1C19.9303 1 25.3902 6.45994 25.3902 13.1951C25.3902 15.9523 24.4752 18.4959 22.9323 20.5385C22.3843 21.3005 21.644 22.1114 20.8245 23.0089C17.9757 26.1289 14.1707 30.2961 14.1707 37.0976C14.1707 37.6364 13.7339 38.0731 13.1951 38.0732"/>
</mask>
<path fill-rule="evenodd" clip-rule="evenodd" d="M13.1951 38.0732C12.6563 38.0731 12.2195 37.6364 12.2195 37.0976C12.2195 30.2961 8.41452 26.1289 5.56568 23.0089C4.74542 22.1105 4.00442 21.299 3.45635 20.5364C1.91438 18.4941 1 15.9514 1 13.1951C1 6.45994 6.45994 1 13.1951 1C19.9303 1 25.3902 6.45994 25.3902 13.1951C25.3902 15.9523 24.4752 18.4959 22.9323 20.5385C22.3843 21.3005 21.644 22.1114 20.8245 23.0089C17.9757 26.1289 14.1707 30.2961 14.1707 37.0976C14.1707 37.6364 13.7339 38.0731 13.1951 38.0732" fill="#EA352B"/>
<path d="M13.1951 37.5732H13.1951V38.5732H13.1951V37.5732ZM5.56568 23.0089L4.82721 23.6832L4.82721 23.6832L5.56568 23.0089ZM3.45635 20.5364L4.26838 19.9528L4.26152 19.9432L4.25442 19.9338L3.45635 20.5364ZM22.9323 20.5385L22.1343 19.9358L22.1272 19.9452L22.1204 19.9547L22.9323 20.5385ZM20.8245 23.0089L21.563 23.6832L21.563 23.6832L20.8245 23.0089ZM11.2195 37.0976C11.2195 38.1886 12.104 39.0731 13.195 39.0732L13.1951 37.0732C13.1966 37.0732 13.2006 37.0737 13.2049 37.0755C13.2086 37.077 13.2109 37.0788 13.2124 37.0803C13.2138 37.0818 13.2156 37.0841 13.2172 37.0878C13.219 37.0921 13.2195 37.096 13.2195 37.0976H11.2195ZM4.82721 23.6832C7.68016 26.8077 11.2195 30.7182 11.2195 37.0976H13.2195C13.2195 29.8741 9.14887 25.4501 6.30416 22.3346L4.82721 23.6832ZM2.64431 21.12C3.23366 21.94 4.01911 22.7981 4.82721 23.6832L6.30416 22.3346C5.47172 21.4229 4.77518 20.658 4.26838 19.9528L2.64431 21.12ZM0 13.1951C0 16.1763 0.989806 18.9291 2.65827 21.1389L4.25442 19.9338C2.83895 18.059 2 15.7265 2 13.1951H0ZM13.1951 0C5.90766 0 0 5.90766 0 13.1951H2C2 7.01223 7.01223 2 13.1951 2V0ZM26.3902 13.1951C26.3902 5.90766 20.4826 0 13.1951 0V2C19.378 2 24.3902 7.01223 24.3902 13.1951H26.3902ZM23.7302 21.1413C25.3997 18.931 26.3902 16.1773 26.3902 13.1951H24.3902C24.3902 15.7274 23.5507 18.0607 22.1343 19.9358L23.7302 21.1413ZM21.563 23.6832C22.3703 22.7989 23.155 21.9416 23.7442 21.1224L22.1204 19.9547C21.6137 20.6594 20.9176 21.4238 20.086 22.3346L21.563 23.6832ZM15.1707 37.0976C15.1707 30.7182 18.71 26.8077 21.563 23.6832L20.086 22.3346C17.2413 25.4501 13.1707 29.8741 13.1707 37.0976H15.1707ZM13.1952 39.0732C14.2862 39.0731 15.1707 38.1886 15.1707 37.0976H13.1707C13.1707 37.096 13.1712 37.0921 13.173 37.0878C13.1745 37.0841 13.1763 37.0818 13.1778 37.0803C13.1793 37.0788 13.1816 37.077 13.1853 37.0755C13.1896 37.0737 13.1935 37.0732 13.1951 37.0732L13.1952 39.0732Z" fill="url(#paint0_linear_4_4)" mask="url(#path-2-outside-1_4_4)"/>
<circle cx="13.3077" cy="13.3077" r="7.69231" fill="black" fill-opacity="0.4"/>
<g filter="url(#filter1_b_4_4)">
<path d="M9.88636 18H8.40909L12.6818 6.36364H14.1364L18.4091 18H16.9318L13.4545 8.20455H13.3636L9.88636 18ZM10.4318 13.4545H16.3864V14.7045H10.4318V13.4545Z" fill="white"/>
</g>
<defs>
<filter id="filter0_f_4_4" x="6.8049" y="34.122" width="12.7805" height="8.87805" filterUnits="userSpaceOnUse" color-interpolation-filters="sRGB">
<feFlood flood-opacity="0" result="BackgroundImageFix"/>
<feBlend mode="normal" in="SourceGraphic" in2="BackgroundImageFix" result="shape"/>
<feGaussianBlur stdDeviation="1" result="effect1_foregroundBlur_4_4"/>
</filter>
<filter id="filter1_b_4_4" x="4.40909" y="2.36365" width="18" height="19.6364" filterUnits="userSpaceOnUse" color-interpolation-filters="sRGB">
<feFlood flood-opacity="0" result="BackgroundImageFix"/>
<feGaussianBlur in="BackgroundImage" stdDeviation="2"/>
<feComposite in2="SourceAlpha" operator="in" result="effect1_backgroundBlur_4_4"/>
<feBlend mode="normal" in="SourceGraphic" in2="effect1_backgroundBlur_4_4" result="shape"/>
</filter>
<linearGradient id="paint0_linear_4_4" x1="13.1951" y1="1" x2="13.1951" y2="38.0732" gradientUnits="userSpaceOnUse">
<stop stop-color="white"/>
<stop offset="1" stop-color="white" stop-opacity="0.35"/>
</linearGradient>
</defs>
</svg>
